<svg id="left-arrow" xmlns="http://www.w3.org/2000/svg" width="44.375" height="11.827" viewBox="0 0 44.375 11.827">
  <g id="Group_2" data-name="Group 2" transform="translate(0 0)">
    <path id="Path_1" data-name="Path 1" d="M23.463,136.682l-40.157.278,3.346-3.33a.954.954,0,0,0,0-1.349.954.954,0,0,0-1.349,0l-4.984,4.96h0a.955.955,0,0,0,0,1.35h0l4.984,4.96a.954.954,0,0,0,1.349,0,.954.954,0,0,0,0-1.349l-3.346-3.33,40.157-.278a.954.954,0,0,0,0-1.908Z" transform="translate(19.958 -132)" fill="#ffffff"/>
  </g>
</svg>
